/* XPM */
static char *_211ab84b19d4afbc2e6d954e4ceb6a3KM9DLlRICr20vCK8[] = {
/* columns rows colors chars-per-pixel */
"32 32 40 1 ",
"  c black",
". c gray11",
"X c gray15",
"o c #2A2A2A",
"O c #353535",
"+ c gray26",
"@ c gray27",
"# c #4B4B4B",
"$ c gray31",
"% c #515151",
"& c #565656",
"* c #585858",
"= c #5F5F5F",
"- c #606060",
"; c gray40",
": c #686868",
"> c gray43",
", c gray45",
"< c #767676",
"1 c gray47",
"2 c #818181",
"3 c gray53",
"4 c gray55",
"5 c #A2A2A2",
"6 c #A5A5A5",
"7 c #A9A9A9",
"8 c #AEAEAE",
"9 c #B2B2B2",
"0 c #B4B4B4",
"q c #CBCBCB",
"w c #CDCDCD",
"e c gray84",
"r c #D8D8D8",
"t c #E2E2E2",
"y c #E4E4E4",
"u c #EEEEEE",
"i c gray95",
"p c #F6F6F6",
"a c #F9F9F9",
"s c white",
/* pixels */
"                                ",
"                                ",
"                                ",
"                                ",
"                                ",
"            O8tpspt9+           ",
"           ,usssssssi2          ",
"          &isssssssssp:         ",
"          qssa9-o*7psse         ",
"         #sss3     ,ass;        ",
"         5ssr       qss9        ",
"         qss5       4ssr        ",
"         tss<       $ssu        ",
"         iss%        ssa        ",
"         pssX        psso       ",
"         sss         iss#       ",
"         sss         iss#       ",
"         pss.        psso       ",
"         iss#        sss        ",
"         tss,       $ssu        ",
"         wss5       4ssr        ",
"         5sse       qss0        ",
"         $sss3     >ass>        ",
"          wssa8=o&6pssr         ",
"          *psssssssssp>         ",
"           1isssssssi3          ",
"            O9tpspy0@           ",
"                                ",
"                                ",
"                                ",
"                                ",
"                                "
};
