/* XPM */
static char *_eec604243484905a090b4a18d82e738fIJkWA50JAI2Kuca[] = {
/* columns rows colors chars-per-pixel */
"32 32 12 1 ",
"  c black",
". c gray5",
"X c gray18",
"o c #585858",
"O c #848484",
"+ c #9F9F9F",
"@ c gray66",
"# c #AEAEAE",
"$ c gray77",
"% c #F1F1F1",
"& c #F6F6F6",
"* c white",
/* pixels */
"                                ",
"                                ",
"                                ",
"                                ",
"                                ",
"               .&*#             ",
"               +**#             ",
"           XoO$***#             ",
"           &******#             ",
"           &******#             ",
"           &******#             ",
"               @**#             ",
"               @**#             ",
"               @**#             ",
"               @**#             ",
"               @**#             ",
"               @**#             ",
"               @**#             ",
"               @**#             ",
"               @**#             ",
"               @**#             ",
"               @**#             ",
"               @**#             ",
"               @**#             ",
"           &**********%         ",
"           &**********%         ",
"           &**********%         ",
"                                ",
"                                ",
"                                ",
"                                ",
"                                "
};
