/* XPM */
static char *c338514494d44530be78b8eed6bf7385NB5PuXL6Kmur0k5H[] = {
/* columns rows colors chars-per-pixel */
"32 32 43 1 ",
"  c black",
". c gray5",
"X c gray11",
"o c #222222",
"O c gray18",
"+ c #353535",
"@ c gray22",
"# c gray24",
"$ c gray25",
"% c gray27",
"& c #4B4B4B",
"* c #565656",
"= c gray39",
"- c #656565",
"; c #6D6D6D",
": c #727272",
"> c #797979",
", c gray50",
"< c #838383",
"1 c #898989",
"2 c #8E8E8E",
"3 c gray57",
"4 c gray59",
"5 c gray64",
"6 c #A9A9A9",
"7 c #B2B2B2",
"8 c gray71",
"9 c gray75",
"0 c gray76",
"q c #C5C5C5",
"w c gray79",
"e c #D2D2D2",
"r c #D5D5D5",
"t c #DADADA",
"y c gray87",
"u c gray88",
"i c #E6E6E6",
"p c gray91",
"a c #EEEEEE",
"s c gray95",
"d c #F4F4F4",
"f c #FBFBFB",
"g c white",
/* pixels */
"                                ",
"                                ",
"                                ",
"                                ",
"                                ",
"          +4qudfgdy6$           ",
"         &fgggggggggs1          ",
"         *gggggggggggf>         ",
"         *se6,-@%,wgggy         ",
"                   5ggg%        ",
"                    dgg:        ",
"                    pgg;        ",
"                    dggO        ",
"                   1ggt         ",
"                  oigg<         ",
"                  wgg0          ",
"                 9ggyX          ",
"                9ggi#           ",
"              Xwggy$            ",
"             %tggrO             ",
"            -aggq.              ",
"           2dgg7                ",
"          8ggf3                 ",
"         9gga;                  ",
"         egggggggggggggg=       ",
"         egggggggggggggg=       ",
"         egggggggggggggg=       ",
"                                ",
"                                ",
"                                ",
"                                ",
"                                "
};
