/* XPM */
static char *_3d20b12805f48b3cc514633e843fe82sPxRa6C7fxpjTZI2[] = {
/* columns rows colors chars-per-pixel */
"32 32 47 1 ",
"  c black",
". c gray5",
"X c #161616",
"o c gray11",
"O c #222222",
"+ c #323232",
"@ c gray22",
"# c gray25",
"$ c gray27",
"% c gray30",
"& c #515151",
"* c #565656",
"= c #585858",
"- c #5D5D5D",
"; c #626262",
": c gray39",
"> c gray43",
", c #727272",
"< c #767676",
"1 c gray50",
"2 c gray51",
"3 c #868686",
"4 c #898989",
"5 c gray56",
"6 c #959595",
"7 c #9B9B9B",
"8 c #A7A7A7",
"9 c #AAAAAA",
"0 c gray69",
"q c gray71",
"w c #BBBBBB",
"e c gray",
"r c #C1C1C1",
"t c gray77",
"y c gray79",
"u c LightGray",
"i c #D7D7D7",
"p c #D8D8D8",
"a c #DDDDDD",
"s c #E2E2E2",
"d c #E6E6E6",
"f c gray91",
"g c gray93",
"h c #F1F1F1",
"j c #F6F6F6",
"k c gray98",
"l c white",
/* pixels */
"                                ",
"                                ",
"                                ",
"                                ",
"                                ",
"          o4eahkljdr>           ",
"          glllllllllle.         ",
"          jlllllllllllw         ",
"          gp02*++:9gllk$        ",
"                   %jll5        ",
"                    ull7        ",
"                    all,        ",
"                   4lla         ",
"               X=3yllg-         ",
"              ellllky#          ",
"              ellllr<           ",
"              elllllla-         ",
"                #:6allg@        ",
"                    ill0        ",
"                    5lla        ",
"                    1lld        ",
"                    8llp        ",
"                   -hllq        ",
"         ese6,$O&1wjllk&        ",
"         tllllllllllll7         ",
"         qllllllllllj6          ",
"          :9ufjlkhp9@           ",
"                                ",
"                                ",
"                                ",
"                                ",
"                                "
};
