/* XPM */
static char *_718444966214151b0809fb2b62a9162yNzcjqXiryfqpOYA[] = {
/* columns rows colors chars-per-pixel */
"32 32 30 1 ",
"  c black",
". c gray11",
"X c gray15",
"o c gray24",
"O c gray30",
"+ c #535353",
"@ c #565656",
"# c #686868",
"$ c gray43",
"% c #777777",
"& c gray49",
"* c #8E8E8E",
"= c #979797",
"- c gray64",
"; c gray66",
": c gray68",
"> c #B1B1B1",
", c gray71",
"< c gray78",
"1 c #C8C8C8",
"2 c #CECECE",
"3 c #D0D0D0",
"4 c #DDDDDD",
"5 c #E2E2E2",
"6 c #E7E7E7",
"7 c #EFEFEF",
"8 c gray95",
"9 c gray96",
"0 c gray98",
"q c white",
/* pixels */
"                                ",
"                                ",
"                                ",
"                                ",
"                                ",
"                 .4qq;          ",
"                 1qqq;          ",
"                :qqqq;          ",
"               *qq9qq;          ",
"              $0q4>qq;          ",
"             O7q6o:qq;          ",
"            X5q7+ :qq;          ",
"            2q9#  :qq;          ",
"           ,q0&   :qq;          ",
"          =qq*    :qq;          ",
"         %0q-     :qq;          ",
"        @8q,      :qq;          ",
"        4q<       :qq;          ",
"        8qqqqqqqqqqqqqqq3       ",
"        8qqqqqqqqqqqqqqq3       ",
"        8qqqqqqqqqqqqqqq3       ",
"                  :qq;          ",
"                  :qq;          ",
"                  :qq;          ",
"                  :qq;          ",
"                  :qq;          ",
"                  :qq;          ",
"                                ",
"                                ",
"                                ",
"                                ",
"                                "
};
