/* XPM */
static char *_1637146741[] = {
/* columns rows colors chars-per-pixel */
"32 32 38 1 ",
"  c black",
". c #222222",
"X c gray15",
"o c gray18",
"O c gray25",
"+ c gray27",
"@ c #4B4B4B",
"# c gray36",
"$ c gray40",
"% c #767676",
"& c gray48",
"* c #7C7C7C",
"= c #868686",
"- c #8D8D8D",
"; c #929292",
": c #979797",
"> c #9B9B9B",
", c #9D9D9D",
"< c gray64",
"1 c #A5A5A5",
"2 c #A9A9A9",
"3 c #ACACAC",
"4 c #B2B2B2",
"5 c gray72",
"6 c #BCBCBC",
"7 c gray77",
"8 c #CACACA",
"9 c LightGray",
"0 c #D7D7D7",
"q c gray85",
"w c gainsboro",
"e c #E7E7E7",
"r c gray91",
"t c #EFEFEF",
"y c #F1F1F1",
"u c gray96",
"i c gray98",
"p c white",
/* pixels */
"                                ",
"                                ",
"                                ",
"                                ",
"                                ",
"          >ppppppppppppe        ",
"          >ppppppppppppe        ",
"          >ppppppppppppe        ",
"          >pp6                  ",
"          >pp6                  ",
"          >pp6                  ",
"          >pp6                  ",
"          >pp6                  ",
"          >ppiippue7%           ",
"          >pppppppppp8.         ",
"          >ppppppppppp9         ",
"          :w3%Oo#*4yppp;        ",
"                   Oepp9        ",
"                    =ppt        ",
"                    +ppu        ",
"                    #ppt        ",
"                    2ppq        ",
"                   $upp1        ",
"         -r7,%@.@&5ippyX        ",
"         -pppppppppppp*         ",
"         =ppppppppppt*          ",
"          #29rupiy0<.           ",
"                                ",
"                                ",
"                                ",
"                                ",
"                                "
};
