/* XPM */
static char *_1637146741[] = {
/* columns rows colors chars-per-pixel */
"32 32 49 1 ",
"  c black",
". c gray5",
"X c #161616",
"o c gray11",
"O c gray15",
"+ c #2A2A2A",
"@ c gray18",
"# c #353535",
"$ c gray22",
"% c gray24",
"& c gray26",
"* c gray27",
"= c #4B4B4B",
"- c #535353",
"; c #585858",
": c #5F5F5F",
"> c #686868",
", c gray43",
"< c #777777",
"1 c #797979",
"2 c #7C7C7C",
"3 c gray51",
"4 c gray53",
"5 c gray54",
"6 c gray55",
"7 c gray58",
"8 c #9B9B9B",
"9 c gray62",
"0 c #A5A5A5",
"q c #AAAAAA",
"w c gray68",
"e c #B2B2B2",
"r c #B4B4B4",
"t c #BCBCBC",
"y c #C3C3C3",
"u c #C5C5C5",
"i c #CACACA",
"p c gray81",
"a c #D2D2D2",
"s c #D5D5D5",
"d c #DFDFDF",
"f c #E4E4E4",
"g c #E7E7E7",
"h c #E9E9E9",
"j c gray93",
"k c #F3F3F3",
"l c #F4F4F4",
"z c #FBFBFB",
"x c white",
/* pixels */
"                                ",
"                                ",
"                                ",
"                                ",
"                                ",
"              o6uhkxzg2         ",
"             5hxxxxxxx8         ",
"            exxxxxxxxx8         ",
"           wxxxje<&@2i8         ",
"          >zxxuO                ",
"          sxxi                  ",
"         -xxk$                  ",
"         wxxt                   ",
"         pxx34pjzxlgr%          ",
"         hxxgxxxxxxxxl3         ",
"         kxxxxxxxxxxxxz<        ",
"         zxxhr3:+=1yzxxg        ",
"         xxx.       7xxx>       ",
"         lxx.        gxx9       ",
"         jxx*        uxxw       ",
"         sxx5        ixx0       ",
"         exxp        hxx3       ",
"         ;xxx7      qxxlX       ",
"          uxxxi2*#2ixxxq        ",
"          $hxxxxxxxxxxa.        ",
"           -dxxxxxxxxyo         ",
"             7skxzju,           ",
"                                ",
"                                ",
"                                ",
"                                ",
"                                "
};
