/* XPM */
static char *_1637146742[] = {
/* columns rows colors chars-per-pixel */
"32 32 35 1 ",
"  c black",
". c gray5",
"X c gray15",
"o c #2A2A2A",
"O c #323232",
"+ c #353535",
"@ c gray26",
"# c #494949",
"$ c #515151",
"% c #5D5D5D",
"& c #6D6D6D",
"* c #727272",
"= c gray46",
"- c gray47",
"; c #848484",
": c gray55",
"> c #9B9B9B",
", c #9F9F9F",
"< c gray64",
"1 c #AFAFAF",
"2 c gray70",
"3 c #B7B7B7",
"4 c gray77",
"5 c #C8C8C8",
"6 c #CECECE",
"7 c #D7D7D7",
"8 c gainsboro",
"9 c #E1E1E1",
"0 c #E6E6E6",
"q c gray91",
"w c #EEEEEE",
"e c #F1F1F1",
"r c #F6F6F6",
"t c #F9F9F9",
"y c white",
/* pixels */
"                                ",
"                                ",
"                                ",
"                                ",
"                                ",
"         9yyyyyyyyyyyyyy-       ",
"         9yyyyyyyyyyyyyy-       ",
"         9yyyyyyyyyyyyyy-       ",
"                     6yy-       ",
"                    *yyeO       ",
"                    8yy<        ",
"                   :yyq.        ",
"                  .qyy:         ",
"                  <yy8          ",
"                 +eyy=          ",
"                 3yy6           ",
"                $tyt%           ",
"                5yy4            ",
"               &yyr@            ",
"               8yy1             ",
"              ;yywX             ",
"              0yy>              ",
"             ,yy9               ",
"            oeyy;               ",
"            2yy7                ",
"           #ryy&                ",
"           4yy5                 ",
"                                ",
"                                ",
"                                ",
"                                ",
"                                "
};
