/* XPM */
static char *_1637146742[] = {
/* columns rows colors chars-per-pixel */
"32 32 50 1 ",
"  c black",
". c gray5",
"X c #161616",
"o c gray11",
"O c gray15",
"+ c #2A2A2A",
"@ c gray18",
"# c #323232",
"$ c gray22",
"% c gray25",
"& c gray27",
"* c #4B4B4B",
"= c #565656",
"- c #585858",
"; c #5F5F5F",
": c #606060",
"> c gray39",
", c #6A6A6A",
"< c gray43",
"1 c gray45",
"2 c gray48",
"3 c #7E7E7E",
"4 c #838383",
"5 c #898989",
"6 c #8D8D8D",
"7 c gray57",
"8 c #959595",
"9 c gray61",
"0 c #A0A0A0",
"q c #A5A5A5",
"w c #B1B1B1",
"e c #B4B4B4",
"r c gray73",
"t c gray75",
"y c gray77",
"u c #C5C5C5",
"i c #CBCBCB",
"p c #CDCDCD",
"a c #D2D2D2",
"s c #D5D5D5",
"d c #DADADA",
"f c #DDDDDD",
"g c gray89",
"h c #E4E4E4",
"j c #EAEAEA",
"k c #EEEEEE",
"l c #F1F1F1",
"z c gray96",
"x c #F8F8F8",
"c c #FEFEFE",
/* pixels */
"                                ",
"                                ",
"                                ",
"                                ",
"                                ",
"            :thxcxji3           ",
"           excccccccca#         ",
"          tcccccccccccd         ",
"         <ccch9;@:9hccc8        ",
"         rccfX     Xdccp        ",
"         pcc0       5ccs        ",
"         rccr       6ccy        ",
"         1ccx4      ycc:        ",
"          rccca4   6ccw         ",
"           qxccclpycxw          ",
"           %pcccccccrX          ",
"          2zcd-3ykccck1         ",
"         <zcdo    3dccz2        ",
"         fcc:       wccj        ",
"        *cck        .lcc,       ",
"        2ccj         gcc5       ",
"        ,ccc=       Xzcc2       ",
"        ozccf+      rcczO       ",
"         ycccj0=O:7fccct        ",
"         $hcccccccccccf+        ",
"          &sccccccccci#         ",
"            3ijxcxjy<           ",
"                                ",
"                                ",
"                                ",
"                                ",
"                                "
};
