/* XPM */
static char *_1637146742[] = {
/* columns rows colors chars-per-pixel */
"32 32 51 1 ",
"  c black",
". c gray11",
"X c gray15",
"o c gray18",
"O c #323232",
"+ c gray23",
"@ c gray24",
"# c gray25",
"$ c gray28",
"% c gray30",
"& c #515151",
"* c #565656",
"= c #585858",
"- c #5D5D5D",
"; c #606060",
": c #656565",
"> c DimGray",
", c #6C6C6C",
"< c #717171",
"1 c #767676",
"2 c gray49",
"3 c #818181",
"4 c #868686",
"5 c #8E8E8E",
"6 c #979797",
"7 c gray60",
"8 c #9F9F9F",
"9 c gray64",
"0 c #A5A5A5",
"q c #AAAAAA",
"w c gray68",
"e c #B4B4B4",
"r c gray71",
"t c #B9B9B9",
"y c gray",
"u c gray76",
"i c gray77",
"p c #CACACA",
"a c #CECECE",
"s c gray83",
"d c gray84",
"f c #D8D8D8",
"g c gainsboro",
"h c gray89",
"j c #E4E4E4",
"k c #E9E9E9",
"l c #EAEAEA",
"z c #F3F3F3",
"x c gray96",
"c c #F8F8F8",
"v c white",
/* pixels */
"                                ",
"                                ",
"                                ",
"                                ",
"                                ",
"            ;ukcvzs8.           ",
"           evvvvvvvvk>          ",
"          uvvvvvvvvvvz*         ",
"         6vvvs4#@1ycvvg         ",
"         kvvy      3cvv2        ",
"        ;vvxX       yvvp        ",
"        5vvf        ,vvk        ",
"        7vvs         cvc        ",
"        4vvk         zvv#       ",
"        $vvv9        zvv&       ",
"         fvvvp2%X=2ekvvv+       ",
"         ;cvvvvvvvvvvvvv        ",
"          <kvvvvvvvvkvvz        ",
"           oqgzcvks5-vvf        ",
"                    0vvt        ",
"                    jvv,        ",
"                   wvvh         ",
"                  qvvv3         ",
"          2s2o+>0jvvvy          ",
"          3vvvvvvvvvi           ",
"          3vvvvvvvz7            ",
"          :jcvxka6O             ",
"                                ",
"                                ",
"                                ",
"                                ",
"                                "
};
