/* XPM */
static char *moves1637151119[] = {
/* columns rows colors chars-per-pixel */
"150 32 60 1 ",
"  c black",
". c gray5",
"X c #161616",
"o c gray11",
"O c #222222",
"+ c gray15",
"@ c #2A2A2A",
"# c gray18",
"$ c #323232",
"% c #353535",
"& c gray22",
"* c gray24",
"= c gray26",
"- c gray27",
"; c #494949",
": c gray30",
"> c #515151",
", c #565656",
"< c #5A5A5A",
"1 c #5F5F5F",
"2 c #626262",
"3 c #686868",
"4 c #6A6A6A",
"5 c #6D6D6D",
"6 c #727272",
"7 c #777777",
"8 c #797979",
"9 c #7E7E7E",
"0 c #838383",
"q c gray53",
"w c #898989",
"e c #8D8D8D",
"r c #929292",
"t c gray58",
"y c gray60",
"u c #9D9D9D",
"i c #A2A2A2",
"p c #A5A5A5",
"a c #AAAAAA",
"s c #ACACAC",
"d c gray70",
"f c #B6B6B6",
"g c #B9B9B9",
"h c gray75",
"j c #C3C3C3",
"k c gray78",
"l c #C8C8C8",
"z c #CDCDCD",
"x c #D0D0D0",
"c c #D7D7D7",
"v c gray85",
"b c #DFDFDF",
"n c #E1E1E1",
"m c #E7E7E7",
"M c #EAEAEA",
"N c gray93",
"B c #F1F1F1",
"V c gray97",
"C c #FBFBFB",
"Z c white",
/* pixels */
"                                                                                                                                                      ",
"                                                                                                                                                      ",
"                                                                                                                                                      ",
"                                                                                                                                                      ",
"                                                                                                                                                      ",
"                                                                                                                                                      ",
"                                                                                                                                                      ",
"                                                                                                                                                      ",
"                                                                                                                                                      ",
"                         tZZf qxNZVnaX  :fnVZBz3         6kNCCBzw     OBZZ>        0ZZc      ;gnVZVbpo        9lMCZVMlt+       CZZk                   ",
"                         tZZzbZZZZZZZv@fCZZZZZZC8       hZZZZZZZZx#    kZZd        lZZe     uCZZZZZZZm,     XkZZZZZZZZZv       CZZk                   ",
"                         tZZZZZZZZZZZZVZZZZZZZZZM      jZZZZZZZZZZb.   3ZZM       #VZBX    pZZZZZZZZZZmO    jZZZZZZZZZZn       VZZk                   ",
"                         tZZZZce-&0MZZZZVg3#,dZZZ9    qZZZcq*$8kZZZd    nZZ7      uZZg    5ZZZve-O<pBZZs   ;ZZVd6&+>0axv       CZZk                   ",
"                         tZZBw     5ZZZz-     lZZd    bZZj      iZZB@   iZZk      vZZ1    xZZh      <VZN   wZZk                                       ",
"                         tZZf       BZC       yZZk   ;ZZB@       bZZe   &CZV+    >ZZb    %CZm.       hZZ<  qZZb                                       ",
"                         tZZf       mZZ+      qZZl   rZZz        sZZg    lZZy    dZZy    wZZd        yZZr  -CZZvw+                                    ",
"                         tZZf       nZZ$      8ZZl   pZZd        wZZl    9ZZv    MZV+    pZZZZZZZZZZZZZZi   fZZZZCmli=                                ",
"                         tZZf       bZZ$      6ZZz   dZZa        9ZZx     MZZ>  7ZZj     dZZZZZZZZZZZZZZa    aBZZZZZZChO                              ",
"                         tZZf       bZZ$      6ZZl   pZZd        wZZz     sZZs  kZZ5     pZZZZZZZZZZZZZZa     OegnVZZZZc                              ",
"                         tZZf       bZZ$      6ZZz   rZZz        sZZg     :CZM OVZn      rZZa                      3hCZZ6                             ",
"                         tZZf       bZZ$      6ZZz   :ZZV$       nZZe      cZZ7rZZp      ;ZZc                        lZZi                             ",
"                         tZZf       bZZ$      6ZZl    bZZl      pZZB@      rZZkcZC&       bZZs                       fZZi                             ",
"                         tZZf       bZZ$      6ZZl    wZZZvq*$7lZZZd       XBZVCZl        9ZZZbu6;O-7ykN:  pmht5=o*5sVZZ1      CZZk                   ",
"                         tZZf       bZZ$      7ZZz     jZZZZZZZZZZbX        gZZZZ9         dZZZZZZZZZZZZ>  aZZZZZZZZZZZk       VZZk                   ",
"                         tZZf       bZZ$      6ZZl     .hZZZZZZZZc%         2ZZZM           uCZZZZZZZZZV-  yZZZZZZZZZZlo       CZZk                   ",
"                         tZZf       bZZ$      7ZZz       6kNCCBxw            bZZs            *acBCZVnkqo    1scNVZCMl8         VZZk                   ",
"                                                                                                                                                      ",
"                                                                                                                                                      ",
"                                                                                                                                                      ",
"                                                                                                                                                      ",
"                                                                                                                                                      ",
"                                                                                                                                                      "
};
