/* XPM */
static char *door_closed1637255829[] = {
/* columns rows colors chars-per-pixel */
"32 32 134 2 ",
"   c #6F3C29",
".  c #743C25",
"X  c #7A3F28",
"o  c #3F4200",
"O  c #51453A",
"+  c #774026",
"@  c #7A4127",
"#  c #7D412A",
"$  c #6B4735",
"%  c #644C3E",
"&  c #65503F",
"*  c #4F4F4D",
"=  c #574F46",
"-  c #5B4C41",
";  c #5D5249",
":  c #565B56",
">  c #595D57",
",  c #6F4F45",
"<  c #62594F",
"1  c #745145",
"2  c #795247",
"3  c #755847",
"4  c #725548",
"5  c #7D5348",
"6  c #745D4B",
"7  c #7B5D4C",
"8  c #645C54",
"9  c #5E615D",
"0  c #686056",
"q  c #61645D",
"w  c #6C675E",
"e  c #746456",
"r  c #7D6755",
"t  c #7E6856",
"y  c #7F6958",
"u  c #626761",
"i  c #696462",
"p  c #656A63",
"a  c #6A6D65",
"s  c #6B6E6A",
"d  c #746C61",
"f  c #796E63",
"g  c #6F7167",
"h  c #6E726A",
"j  c #72756C",
"k  c #7C726E",
"l  c #74796F",
"z  c #727571",
"x  c #767A72",
"c  c #797D73",
"v  c #7D7F79",
"b  c #83452B",
"n  c #874B2B",
"m  c #8D4A2E",
"M  c #904C2F",
"N  c #91512E",
"B  c #864830",
"V  c #924C32",
"C  c #8E5331",
"Z  c #82573F",
"A  c #945532",
"S  c #9C5434",
"D  c #965B36",
"F  c #9D5C36",
"G  c #9C5139",
"H  c #955A3D",
"J  c #9C5B39",
"K  c #A35B36",
"L  c #A3553A",
"P  c #A25E3A",
"I  c #AA5D3B",
"U  c #9A6031",
"Y  c #A76137",
"T  c #A36835",
"R  c #A5633A",
"E  c #AD633B",
"W  c #A7683A",
"Q  c #AA6A3B",
"!  c #B2663B",
"~  c #B56B3D",
"^  c #BB6D3F",
"/  c #B4733E",
"(  c #BB733F",
")  c #84564A",
"_  c #8F5B4D",
"`  c #B66341",
"'  c #B76E41",
"]  c #BB6E42",
"[  c #B37344",
"{  c #BC7241",
"}  c #BE7C41",
"|  c #C26E46",
" . c #C27544",
".. c #C47B44",
"X. c #CA7D47",
"o. c #C57C48",
"O. c #CC7D48",
"+. c #7D8076",
"@. c #7E8279",
"#. c #B38053",
"$. c #81847B",
"%. c #85897E",
"&. c #B98367",
"*. c #C58344",
"=. c #CA8347",
"-. c #C0804C",
";. c #CE8249",
":. c #D2844B",
">. c #D8864F",
",. c #D58A4C",
"<. c #D98C4E",
"1. c #D5914C",
"2. c #D9914E",
"3. c #CC8C5B",
"4. c #D68C50",
"5. c #DB8C51",
"6. c #DD9152",
"7. c #858684",
"8. c #888685",
"9. c #848981",
"0. c #8B8D84",
"q. c #8C8B8B",
"w. c #8E918D",
"e. c #93968D",
"r. c #939393",
"t. c #979A95",
"y. c #AF998F",
"u. c #A5A8A4",
"i. c #A9AAA7",
"p. c #ACAFAB",
"a. c #B7B8B6",
"s. c #C59986",
"d. c #D1D2D2",
"f. c #DBDCDB",
/* pixels */
"o o o o o o o o o o o o o o o o o o o o o o o o o o o o o o o o ",
"o o o o o o o o o o o o o 9.9.%.@.9.o o o o o o o o o o o o o o ",
"o o o o o o o o o o o o o c +.@.h h o o o o o o o o o o o o o o ",
"o o o o o o o o o o o o o c c c h s d.o o o o o o o o o o o o o ",
"o o o o o o o o o o f.u.s j l x c a c p.d.o %.o o o o o o o o o ",
"o o o o o o 0.c i.w.c x u a c @.c a +.j c q.e.%.a.o o o o o o o ",
"o o o o o @.x x x p c x q 8 f f d 8 x l g j %.%.$.o o o o o o o ",
"o o o o o a.h l x h < Z A F J E R I _ 3 9 %.@.@.$.0.o o o o o o ",
"o o o o o t.a h a % C Q Q ] ] o.o. .{ J H 0 h g c o o o o o o o ",
"o o o o a.+.+.> $ U R o.o.;.o.4.4.:.>.' { D = @.$.@.o o o o o o ",
"o o o o h h c 3 P / / :.,.,.;.6.5.,.,.} ,.{ F w c a o o o o o o ",
"o o o o l l w D { X.} >.<.4.;.1.,.:.,...<.o.( ) a l v o o o o o ",
"o o o i.j h 7 ~ X.:.*.2.6.,.=.<.>.;.:.*.,.=.} W a j l o o o o o ",
"o o o c @.j D ..:.,.*.<.,.:.=.1.>.:.<.*.6.:.X.{ ; x l o o o o o ",
"o o c j h a W :.>.<.=.5.:.:.;.1.<.<.<.*.6.:.,.-.6 c $.l a o o o ",
"o o @.@.@.p Q ;.:.,.=.5.:.:.=.,.<.<.,.*.6.,.;.1._ x @.c h o o o ",
"o o h h j a W O.:.:.*.<.;.;.*.1.>.5.:.*.<.;.;.2.y @.j h 9 o o o ",
"o o o 9 s > W ;.:.:.*.,.;.;.o.1.:.:.:...<.;.;.2.& a a o o o o o ",
"o o o @.0.g Q :.:.:...,.O.;...:.;.;.:.( :.X.;.,.e @.h o o o o o ",
"o o o j c g W ;.:.O.*.:.;.;.;.;.O.;.X...:.&.s.3.r x h o o o o o ",
"o o o z h 9 Q =.O.O...:.O.:...;.O.;.O...=.8 r.#.6 h q o o o o o ",
"o o o h a > Q ;.;.;.*.,.;.:.O.,.;.;.:.} o.q.8.y.- p a o o o o o ",
"o o $.$.$.g Q X.X.X.( ,.:.;.o.;.;.;.;.} [ s * k 8 x l $.j o o o ",
"o o @.@.l w Y X... ./ >.O.O...X.X.X.O./ / p 8.1 0 c c @.g o o o ",
"o o @.c j q R  .^ ~ Q O. .X.^ O.(  .{ Q ( ~ ! ..8 $.c @.p o o o ",
"o o 7.q q : J ! ! I T | ^ ^ !  .! ! ! Y ! Y S / O q q z x o o o ",
"o o o z c h B L L S F ` I I K ~ K K K N K N b Y < $.l o o o o o ",
"o o o x x a X m m m b L S S S I M M m n m + @ M 8 c l o o o o o ",
"o o o x h u   X X . X V b m b G @ X @ . # . . # = l @.o o o o o ",
"o o o z p > 1 2 2 1 2 ) 5 ) ) _ 5 2 2 , 2 1 1 2 > s h o o o o o ",
"o o o o o o o o o o o o o o o o o o o o o o o o o o o o o o o o ",
"o o o o o o o o o o o o o o o o o o o o o o o o o o o o o o o o "
};
