/* XPM */
static char *door_open1637255829[] = {
/* columns rows colors chars-per-pixel */
"32 32 145 2 ",
"   c #6D3724",
".  c #703A25",
"X  c #3F4200",
"o  c #6E4129",
"O  c #754527",
"+  c #7C4126",
"@  c #744925",
"#  c #75432B",
"$  c #7E412B",
"%  c #6A4F3A",
"&  c #704231",
"*  c #6D513D",
"=  c #72513F",
"-  c #7F5539",
";  c #575940",
":  c #51534E",
">  c #5A554D",
",  c #525651",
"<  c #565A55",
"1  c #595C56",
"2  c #5A5E58",
"3  c #625042",
"4  c #6A5547",
"5  c #6C5A4C",
"6  c #735343",
"7  c #71534A",
"8  c #715B49",
"9  c #655C52",
"0  c #6C5F54",
"q  c #795E51",
"w  c #5E625B",
"e  c #7C614F",
"r  c #62655E",
"t  c #68695F",
"y  c #6F705F",
"u  c #636761",
"i  c #666A62",
"p  c #6A6D65",
"a  c #6B6F69",
"s  c #726E63",
"d  c #706F6F",
"f  c #6D7167",
"g  c #6E726A",
"h  c #727166",
"j  c #72756C",
"k  c #74786F",
"l  c #727572",
"z  c #787270",
"x  c #767A72",
"c  c #7A7D73",
"v  c #797C79",
"b  c #85452B",
"n  c #824C2C",
"m  c #8D4B2D",
"M  c #904F2C",
"N  c #8B542E",
"B  c #92572D",
"V  c #874D30",
"C  c #844D3D",
"Z  c #934D32",
"A  c #8C5230",
"S  c #8D5930",
"D  c #82533C",
"F  c #945031",
"G  c #995036",
"H  c #9F5A34",
"J  c #9D5E39",
"K  c #A05636",
"L  c #A25D35",
"P  c #A25839",
"I  c #9A603E",
"U  c #A26335",
"Y  c #AE6735",
"T  c #AD613B",
"R  c #A76838",
"E  c #AC6A3B",
"W  c #B46B34",
"Q  c #B36C3C",
"!  c #AF713D",
"~  c #BA7133",
"^  c #B3723E",
"/  c #BA763C",
"(  c #815747",
")  c #8C5F47",
"_  c #80594A",
"`  c #8F6149",
"'  c #93644A",
"]  c #99664B",
"[  c #876459",
"{  c #856C59",
"}  c #886D5A",
"|  c #926A59",
" . c #B56D41",
".. c #BC6F41",
"X. c #B57441",
"o. c #BC7441",
"O. c #BE7944",
"+. c #856F64",
"@. c #8B766B",
"#. c #A27A62",
"$. c #C57645",
"%. c #C47A45",
"&. c #CA7D46",
"*. c #C67B48",
"=. c #CA7E48",
"-. c #7D8076",
";. c #7E8279",
":. c #81857B",
">. c #868A7F",
",. c #89897E",
"<. c #BE8363",
"1. c #CE8249",
"2. c #CC8849",
"3. c #D1854A",
"4. c #D48B4B",
"5. c #DA8D4F",
"6. c #D9904E",
"7. c #DC9350",
"8. c #E09652",
"9. c #838582",
"0. c #898381",
"q. c #858982",
"w. c #898C86",
"e. c #8D8D8B",
"r. c #8E928D",
"t. c #929491",
"y. c #959994",
"u. c #9D9996",
"i. c #9A9D99",
"p. c #A5938E",
"a. c #A29D9B",
"s. c #A3A49D",
"d. c #A5A6A5",
"f. c #A7A9A4",
"g. c #A8AAA7",
"h. c #ADAFAD",
"j. c #BAAEAA",
"k. c #B4B6B3",
"l. c #C4C5C4",
"z. c #C7C8C7",
"x. c #CCCDCB",
"c. c #D2D3D2",
"v. c #DADBDA",
"b. c #E1E2E1",
"n. c #E7E8E7",
/* pixels */
"X X X X X X X X X X X X X X X X X X X X X X X X X X X X X X X X ",
"X X X X X X X X X X X X r.;.;.;.;.x l.X X X X X X X X X X X X X ",
"X X X X X X X X X X X X i.-.x ;.x -.y.n.X X X X X X X X X X X X ",
"X X X X X X X X X X X s.h.x g -.-.-.g h.X X X X X X X X X X X X ",
"X X X X X X X f.X v.k.q.w g p x x x f x h.f c.k.X X X X X X X X ",
"X X X X X X c x t.x j k u x w j g -.j g x x >.-.g.X X X X X X X ",
"X X X X X x x x j -.j g ;.x i j -.c h x k k k >.k z.X X X X X X ",
"X X X X X d.k j g k x g g j 0 e { s 5 h k p :.:.;.z.X X X X X X ",
"X X X X X r.u k r f k x 5 I ^  .R R Y B = l ;.;.p b.X X X X X X ",
"X X X X k.;.k 1 k j i 4 J ..2.o.E E ! I ) c.i f ;.c X X X X X X ",
"X X X y g k ;.9 x c 4 R X.2.4.O.^ ^ W Y ' X c.x ;.g z.X X X X X ",
"X X X x.j f s h g f J *.%.5.7.O.X.^ Q W ] X X l.f f w.X X X X X ",
"X X X f.k k e k k e Q 4.*.5.4.O.O.X.^ W ' X X X j j g X X X X X ",
"X X X ;.j p 8 f p D o.6.=.4.4.1.O.X./ ~ ] X X X r.f i X X X X X ",
"X X ; ;.:.u v :.c n *.8.=.3.4.2.1.X./ ~ ` X X X X ;.q.-.v s.X X ",
"X X -.x j g c ;.p N 3.6.=.3.4.1.O./ / / ` X X X X -.-.c w X X X ",
"X X c ;.-.r f j p S 3.6.*.1.4.&.O.^ X.<.| X X X X -.x g 1 X X X ",
"X X g g j < > i w S 3.5.%.=.3.&.O.! U i.+.X X X X a w < , X X X ",
"X X q.< r , = w.j N =.5.O.1.3.$.o.! #.e.u.X X X X ;.u l 9.;.X X ",
"X X X x w.t * c j S 3.4.%.&.2.&.O.X.@.d z X X X X x u X X X X X ",
"X X X i -.t * f r S &.4.o.3.4.=.o.! D 0.q X X X X p 1 X X X X X ",
"X X X r c w h x u S 1.4.$.3.=.%./ E m b _ X X X X j a w.X X X X ",
"X X h w w i c -.f S &.3.$.=.=...E U m m ( X X X X g x :.d.X X X ",
"X X x ;.;.f c c t N $.1. .&.$.Q H A B m ( X X X X :.;.c 1 X X X ",
"X X c c c i j f w A $.o.T $...L M n m b 6 X X X X j k p 1 X X X ",
"X X -.:.j < 3 g i n Q Q P L T Z . . + + 7 X X X X l u i r X X X ",
"X X -.c j 1 * x j n K L Z G G b . 7 p.X 0.X X X X c p x r X X X ",
"X X ;.w w : * k u O Z m $ C X j.X X X X X X X X X k g l v X X X ",
"X X X i ;.t % w < . [ X X X X X X X X X X X X X X u u X X X X X ",
"X X X p k t @ # & X X X X X X X X X X X X X X X X g a X X X X X ",
"X X X a j 2 @ - X X X X X X X X X X X X X X X X X k c X X X X X ",
"X X X 2 u 2 j.X X X X X X X X X X X X X X X X X w.g g X X X X X "
};
