/* XPM */
static char *bcabc648d65941db90695bb6d7150887VEizzCRgxp8LQH6I[] = {
/* columns rows colors chars-per-pixel */
"30 32 256 2 ",
"   c black",
".  c #800000",
"X  c #008000",
"o  c #808000",
"O  c navy",
"+  c #800080",
"@  c #008080",
"#  c #C0C0C0",
"$  c #C0DCC0",
"%  c #A6CAF0",
"&  c black",
"*  c #630000",
"=  c green",
"-  c #940010",
";  c #E7004A",
":  c #E7045A",
">  c #E7246B",
",  c #EF518C",
"<  c #EF619C",
"1  c #EF71A5",
"2  c #F792BD",
"3  c #F7B2CE",
"4  c #FFC7D6",
"5  c #FFD7E7",
"6  c #FFEFF7",
"7  c white",
"8  c #41075D",
"9  c #360A34",
"0  c #41EC0D",
"q  c #41EC15",
"w  c #1201DA",
"e  c #360A54",
"r  c #437943",
"t  c #12EE9C",
"y  c #43795A",
"u  c #437962",
"i  c #12F1C0",
"p  c #43796C",
"a  c #12EE9C",
"s  c black",
"d  c #000111",
"f  c #6B4A20",
"g  c #36D12C",
"h  c #12EEB4",
"j  c #449E22",
"k  c #000111",
"l  c #0401DA",
"z  c #1201DA",
"x  c black",
"c  c #12EED4",
"v  c #E13EB0",
"b  c #0701FE",
"n  c #000111",
"m  c #0401DA",
"M  c #1201DA",
"N  c #000111",
"B  c #BAABCD",
"V  c #12EF04",
"C  c #E155B5",
"Z  c #000003",
"A  c #12EF30",
"S  c #12EF24",
"D  c #F46371",
"F  c #000010",
"G  c #000003",
"H  c #000003",
"J  c #000028",
"K  c #12EF30",
"L  c #12EF2C",
"P  c black",
"I  c #000001",
"U  c black",
"Y  c #000001",
"T  c #F486C8",
"R  c #010573",
"E  c black",
"W  c black",
"Q  c #12F1F8",
"!  c black",
"~  c #000034",
"^  c black",
"/  c black",
"(  c #12F1B0",
")  c #000001",
"_  c #000001",
"`  c black",
"'  c black",
"]  c black",
"[  c black",
"{  c black",
"}  c black",
"|  c black",
" . c black",
".. c black",
"X. c black",
"o. c black",
"O. c black",
"+. c black",
"@. c black",
"#. c black",
"$. c black",
"%. c black",
"&. c black",
"*. c black",
"=. c black",
"-. c black",
";. c black",
":. c black",
">. c #000052",
",. c black",
"<. c black",
"1. c #2D91FC",
"2. c black",
"3. c black",
"4. c black",
"5. c black",
"6. c black",
"7. c black",
"8. c black",
"9. c black",
"0. c black",
"q. c black",
"w. c black",
"e. c black",
"r. c black",
"t. c black",
"y. c black",
"u. c black",
"i. c black",
"p. c black",
"a. c black",
"s. c black",
"d. c black",
"f. c black",
"g. c black",
"h. c black",
"j. c black",
"k. c black",
"l. c black",
"z. c black",
"x. c black",
"c. c black",
"v. c black",
"b. c black",
"n. c black",
"m. c black",
"M. c black",
"N. c black",
"B. c black",
"V. c black",
"C. c black",
"Z. c black",
"A. c black",
"S. c black",
"D. c black",
"F. c black",
"G. c black",
"H. c black",
"J. c black",
"K. c black",
"L. c black",
"P. c black",
"I. c black",
"U. c black",
"Y. c black",
"T. c black",
"R. c black",
"E. c black",
"W. c #E13EB0",
"Q. c #1201DA",
"!. c #00B029",
"~. c black",
"^. c black",
"/. c #E23EEB",
"(. c #BAABCD",
"). c #12F0D0",
"_. c #E16469",
"`. c #E23EEB",
"'. c #1201DA",
"]. c #00B029",
"[. c black",
"{. c black",
"}. c #F45EC1",
"|. c #0103DD",
" X c #000020",
".X c #000020",
"XX c green",
"oX c black",
"OX c #05047D",
"+X c black",
"@X c black",
"#X c #000001",
"$X c #000052",
"%X c #F45EC1",
"&X c #010057",
"*X c #000020",
"=X c #000020",
"-X c black",
";X c black",
":X c #2D8B3C",
">X c #00B029",
",X c #12F278",
"<X c #3694DC",
"1X c #4351F8",
"2X c #00B029",
"3X c #12F278",
"4X c #3694DC",
"5X c #437D43",
"6X c #00B029",
"7X c #12F278",
"8X c #3694DC",
"9X c black",
"0X c black",
"qX c black",
"wX c black",
"eX c black",
"rX c black",
"tX c black",
"yX c black",
"uX c black",
"iX c #000001",
"pX c #000006",
"aX c #368328",
"sX c #000008",
"dX c #000003",
"fX c #12F1C4",
"gX c #12F1B8",
"hX c #F46371",
"jX c #000018",
"kX c #F455AB",
"lX c #05047D",
"zX c #000054",
"xX c #12F54C",
"cX c #F433AC",
"vX c #05047D",
"bX c #000054",
"nX c #12F54C",
"mX c #2D9224",
"MX c #12F58C",
"NX c #2D8B3C",
"BX c black",
"VX c black",
"CX c #2D91FC",
"ZX c black",
"AX c #000028",
"SX c black",
"DX c #A0A0A4",
"FX c #808080",
"GX c red",
"HX c green",
"JX c yellow",
"KX c blue",
"LX c magenta",
"PX c cyan",
"IX c white",
"UX c #64A247",
/* pixels */
"= = = = = = = =                             = = = = = = = = ",
"= = = = = =     * * * * * * * * * * * * * *     = = = = = = ",
"= = = =     * * * - - - - - - - - - - - - * * *     = = = = ",
"= = =   * * - - - ; ; ; ; ; ; ; ; ; ; ; ; - - - * *   = = = ",
"= =   * - - ; ; ; ; : ; ; ; : ; ; ; : ; ; ; ; ; - - *   = = ",
"=   * - ; ; : 1 4 7 4 1 : ; ; ; : ; > 2 7 2 > ; ; ; - *   = ",
"=   * - ; : 2 7 7 7 7 7 2 : ; ; ; , 7 7 7 7 7 , : ; - *   = ",
"  * - ; ; < 7 7 7   7 7 7 1 ; ; > 7 7 7 7   7 7 > ; ; - *   ",
"  * - ; ; 3 7 7       7 7 3 ; ; 1 7 7 7       7 1 ; ; - *   ",
"  * - ; ; 6 7 7 7   7 7 7 6 ; ; 5 7 7 7 7   7 7 5 ; ; - *   ",
"  * - ; ; 6 7 7 7 7 7 7 7 6 ; ; 5 7 7 7 7 7 7 7 5 ; ; - *   ",
"  * - ; ; 3 7 7 7 7 7 7 7 3 ; ; 1 7 7 7 7 7 7 7 1 ; ; - *   ",
"  * - ; ; < 7 7 7 7 7 7 7 < ; ; > 7 7 7 7 7 7 7 > ; ; - *   ",
"  * - ; ; : 2 7 7 7 7 7 2 : ; ; ; , 7 7 7 7 7 , ; ; : - *   ",
"  * - : ; ; : 1 4 7 4 1 : ; ; ; ; ; > 2 6 2 > ; ; ; ; - *   ",
"  * - ; ; ; ; ; ; ; ; ; ; ; : ; : ; ; ; ; ; ; ; ; : ; - *   ",
"  * - ; ; ; ; ; ; ; ; ; ; ; ; ; ; ; : ; ; ; ; : ; ; ; - *   ",
"  * - ; : ; ; ; : ; ; ; : ; ; ; ; ; ; ; ; : ; ; ; ; ; - *   ",
"  * - ; ; ; : ; ; ; : ; ; ; : ; : ; ; : ; ; ; ; ; : ; - *   ",
"  * - ; ; ; ; ; ; ; ; ; ; ; ; ; ; ; ; ; ; ; ; : ; ; ; - *   ",
"  * - ; : ; ; ; : ; ; ; : ; ; ; ; : ; ; ; : ; ; ; ; : - *   ",
"  * - ; ; ; : ; ; ; : ; ; ; : ; ; ; ; : ; ; ; ; : ; ; - *   ",
"  * - : ; ; ; ; ; ; ; ; ; ; ; ; : ; ; ; ; ; : ; ; ; ; - *   ",
"  * - ; ; : ; ; : ; ; : ; : ; ; ; ; : ; ; ; ; ; ; ; ; - *   ",
"  * - ; ; ; ; : ; ; ; ; ; ; ; : ; ; ; ; : ; ; ; : ; : - *   ",
"  * - ; ; ; ; ; ; : ; ; : ; ; ; ; ; ; ; ; ; : ; ; ; ; - *   ",
"  * - : ; : ; ; ; ; : ; ; ; ; ; ; : ; : ; ; ; ; ; ; ; - *   ",
"  * - - ; ; ; : ; - ; ; ; : ; : ; ; ; ; ; - ; : ; : ; - *   ",
"  * * * - ; ; ; - * - ; ; ; ; - ; ; ; ; - * - ; ; ; - * *   ",
"  *     * - - - *   * - - - -   - - - - *   * - - - *   *   ",
"    = =   * * *   =   * * *   =   * * *   =   * * *   =     ",
"  = = = =       = = =       = = =       = = =       = = =   "
};
