/* XPM */
static char *_cf3d73d3ce847bdb0ebe0c3b6d1e333cS0YVa2jy1eCqGf6_0[] = {
/* columns rows colors chars-per-pixel */
"29 29 256 2 ",
"   c black",
".  c #800000",
"X  c #008000",
"o  c #808000",
"O  c navy",
"+  c #800080",
"@  c #008080",
"#  c #C0C0C0",
"$  c #C0DCC0",
"%  c #A6CAF0",
"&  c black",
"*  c #404000",
"=  c #840000",
"-  c red",
";  c white",
":  c #12FA08",
">  c #479038",
",  c #479040",
"<  c #12F4E4",
"1  c #CE3264",
"2  c #141DF0",
"3  c #100751",
"4  c #010685",
"5  c #12F2EC",
"6  c black",
"7  c #12F540",
"8  c #BB2346",
"9  c #B56D48",
"0  c white",
"q  c #12F34C",
"w  c #E13EB0",
"e  c #0302EC",
"r  c #00BD38",
"t  c #010685",
"y  c #0302EC",
"u  c black",
"i  c black",
"p  c #00031F",
"a  c #000017",
"s  c #CE3264",
"d  c #12F4E4",
"f  c #CE3264",
"g  c #12F4A4",
"h  c #42D35C",
"j  c #CE3264",
"k  c #12F4E4",
"l  c #CE3264",
"z  c #42FEA7",
"x  c #CE3264",
"c  c #12F6B8",
"v  c #CE3264",
"b  c #00004E",
"n  c #DE0FD5",
"m  c #CE18DC",
"M  c #40EA29",
"N  c #CE0A34",
"B  c #41C7F5",
"V  c #41C7FD",
"C  c #CE18DC",
"Z  c #CE0A54",
"A  c #42FAA7",
"S  c #12F3D4",
"D  c #42FABE",
"F  c #42FAC6",
"G  c #12F4B8",
"H  c #42FAD0",
"J  c #12F3D4",
"K  c #00004E",
"L  c #DE0FD5",
"P  c #5A0600",
"I  c #CE18DC",
"U  c #12F3EC",
"Y  c #441FE2",
"T  c #00004E",
"R  c #1E024A",
"E  c #12F72C",
"W  c black",
"Q  c #12F40C",
"!  c #E13EB0",
"~  c #170276",
"^  c #00004E",
"/  c #1E024A",
"(  c #12F72C",
")  c #DE0FD5",
"_  c #BAABCD",
"`  c #12F430",
"'  c #E16469",
"]  c #DE0FD5",
"[  c #170276",
"{  c #00004E",
"}  c #1E024A",
"|  c #12F72C",
" . c black",
".. c #12F58C",
"X. c #12F450",
"o. c #E164E5",
"O. c #FF03C1",
"+. c #170276",
"@. c #00004E",
"#. c #1E024A",
"$. c #12F72C",
"%. c black",
"&. c #12F46C",
"*. c #B56DDE",
"=. c #FF03C1",
"-. c #170276",
";. c #00004E",
":. c #1E024A",
">. c #12F72C",
",. c #12F4C8",
"<. c #B56CDD",
"1. c #170276",
"2. c #00004E",
"3. c #1E024A",
"4. c #12F72C",
"5. c #B56CEF",
"6. c #12F58C",
"7. c black",
"8. c #1393F8",
"9. c #5A0600",
"0. c black",
"q. c #B56DC6",
"w. c black",
"e. c #12F4D8",
"r. c #4793A6",
"t. c #000001",
"y. c #12F48C",
"u. c #00C01C",
"i. c #12F550",
"p. c #BB2346",
"a. c #B56D58",
"s. c #00C028",
"d. c #12F4E4",
"f. c #5A11C0",
"g. c #00C028",
"h. c #CE3264",
"j. c #12F4F4",
"k. c #42D1A3",
"l. c black",
"z. c #00BC4E",
"x. c #1E024A",
"c. c #12FA08",
"v. c black",
"b. c #12F658",
"n. c #42FFD4",
"m. c #12FA08",
"M. c #00004E",
"N. c #CE18DC",
"B. c #12F6B8",
"V. c #4304FA",
"C. c #12F6B8",
"Z. c #CE18DC",
"A. c #42D35C",
"S. c #00004E",
"D. c #12F6B8",
"F. c #CE18DC",
"G. c #42FEA7",
"H. c #00004E",
"J. c #12F6B8",
"K. c #CE18DC",
"L. c #170276",
"P. c #1393F8",
"I. c #5A0600",
"U. c #E15A85",
"Y. c #170276",
"T. c #1393F8",
"R. c #5A0600",
"E. c #12F5AC",
"W. c #12F548",
"Q. c #12F5AC",
"!. c #12F5AC",
"~. c #E61D49",
"^. c #000052",
"/. c black",
"(. c black",
"). c #D0D50C",
"_. c #170276",
"`. c black",
"'. c #00004E",
"]. c #5A0600",
"[. c #000001",
"{. c #000002",
"}. c #000002",
"|. c black",
" X c #1393F8",
".X c black",
"XX c #000001",
"oX c #12F57C",
"OX c black",
"+X c #12F8C0",
"@X c #BB2346",
"#X c #B56D48",
"$X c white",
"%X c #12F5DC",
"&X c #E13EB0",
"*X c #170276",
"=X c #00004E",
"-X c #1E024A",
";X c #12F72C",
":X c #00004E",
">X c #BAABCD",
",X c #12F60C",
"<X c #E155B5",
"1X c #B56B94",
"2X c #170276",
"3X c #00004E",
"4X c #1E024A",
"5X c #12F72C",
"6X c #FFFFF4",
"7X c #00004E",
"8X c #12F72C",
"9X c #170276",
"0X c #001D88",
"qX c #E14DEC",
"wX c #170276",
"eX c #000020",
"rX c #1E024A",
"tX c #010001",
"yX c black",
"uX c #00029E",
"iX c #000001",
"pX c #000020",
"aX c #406A98",
"sX c #12F8C8",
"dX c #00004E",
"fX c #1E024A",
"gX c #12F72C",
"hX c #12F750",
"jX c #12F7B8",
"kX c #139B88",
"lX c #0103DD",
"zX c #12F68C",
"xX c #12F680",
"cX c #444AA7",
"vX c #00004E",
"bX c #DE0FD5",
"nX c #CE18DC",
"mX c #40EA29",
"MX c #CE0A34",
"NX c #41C7F5",
"BX c #41C7FD",
"VX c #CE18DC",
"CX c #CE0A54",
"ZX c #42FAA7",
"AX c #12F6B0",
"SX c #42FABE",
"DX c #A0A0A4",
"FX c #808080",
"GX c red",
"HX c green",
"JX c yellow",
"KX c blue",
"LX c magenta",
"PX c cyan",
"IX c white",
"UX c #40CE44",
/* pixels */
"* * * * * * * * * * * * . . . . . * * * * * * * * * * * * ",
"* * * * * * * * * . . . - - - - - . . . . * * * * * * * * ",
"* * * * * * * . . - - - - - - - - - - - - . * * * * * * * ",
"* * * * * * . - - - - - - - - - - - - - - - . . * * * * * ",
"* * * * . . - - - - - - - - - - - - - - - - - - . * * * * ",
"* * * * . - - - - - - - - - - - - - - - - - - - - . * * * ",
"* * * . - - - - - - - - - - - - - ; ; - - - - - - . * * * ",
"* * . - - - - - - - - - - - - - ; ; ; ; - - - - - - . * * ",
"* * . - - - - - - - - - - - - - ; ;     - - - - - - - . * ",
"* . - - - - - - - - - - - - - - - ;   - - - - - - - - . * ",
"* . - - - - - - - - - - - - - - - - - - - - - - - - - . * ",
"* . - - - - - - - - - - - - - - - - - - - - - - - - - . * ",
". - - - - - - - - - - - - - - - - - - - - - - - - - - - . ",
". - - - - - - - - - - - - - - - - - - - - . . . . . . . . ",
". - - - - - - - - - - - . . . . . . . . . * * * * * * * * ",
". - - - - - - - - - - - - - - - - - - - - . . . . . . . . ",
". - - - - - - - - - - - - - - - - - - - - - - - - - - - . ",
"* . - - - - - - - - - - - - - - - - - - - - - - - - - . * ",
"* . - - - - - - - - - - - - - - - - - - - - - - - - - . * ",
"* . - - - - - - - - - - - - - - - - - - - - - - - - - . * ",
"* * . - - - - - - - - - - - - - - - - - - - - - - - - . * ",
"* * . - - - - - - - - - - - - - - - - - - - - - - - . * * ",
"* * * . - - - - - - - - - - - - - - - - - - - - - . * * * ",
"* * * * . - - - - - - - - - - - - - - - - - - - - . * * * ",
"* * * * . . - - - - - - - - - - - - - - - - - . . * * * * ",
"* * * * * * . - - - - - - - - - - - - - - - . * * * * * * ",
"* * * * * * * . . - - - - - - - - - - - . . * * * * * * * ",
"* * * * * * * * * . . . - - - - - . . . * * * * * * * * * ",
"* * * * * * * * * * * * . . . . . * * * * * * * * * * * * "
};
