/* XPM */
static char *_cf3d73d3ce847bdb0ebe0c3b6d1e333cS0YVa2jy1eCqGf6_2[] = {
/* columns rows colors chars-per-pixel */
"26 29 256 2 ",
"   c black",
".  c #800000",
"X  c #008000",
"o  c #808000",
"O  c navy",
"+  c #800080",
"@  c #008080",
"#  c #C0C0C0",
"$  c #C0DCC0",
"%  c #A6CAF0",
"&  c black",
"*  c #404000",
"=  c #840000",
"-  c red",
";  c white",
":  c #12FA08",
">  c #479038",
",  c #479040",
"<  c #12F4E4",
"1  c #CE3264",
"2  c #141DF0",
"3  c #100751",
"4  c #010685",
"5  c #12F2EC",
"6  c black",
"7  c #12F540",
"8  c #BB2346",
"9  c #B56D48",
"0  c white",
"q  c #12F34C",
"w  c #E13EB0",
"e  c #0302EC",
"r  c #00BD38",
"t  c #010685",
"y  c #0302EC",
"u  c black",
"i  c black",
"p  c #00031F",
"a  c #000017",
"s  c #CE3264",
"d  c #12F4E4",
"f  c #CE3264",
"g  c #12F4A4",
"h  c #42D35C",
"j  c #CE3264",
"k  c #12F4E4",
"l  c #CE3264",
"z  c #42FEA7",
"x  c #CE3264",
"c  c #12F6B8",
"v  c #CE3264",
"b  c #00004E",
"n  c #DE0FD5",
"m  c #CE18DC",
"M  c #40EA29",
"N  c #CE0A34",
"B  c #41C7F5",
"V  c #41C7FD",
"C  c #CE18DC",
"Z  c #CE0A54",
"A  c #42FAA7",
"S  c #12F3D4",
"D  c #42FABE",
"F  c #42FAC6",
"G  c #12F4B8",
"H  c #42FAD0",
"J  c #12F3D4",
"K  c #00004E",
"L  c #DE0FD5",
"P  c #5A0600",
"I  c #CE18DC",
"U  c #12F3EC",
"Y  c #441FE2",
"T  c #00004E",
"R  c #1E024A",
"E  c #12F72C",
"W  c black",
"Q  c #12F40C",
"!  c #E13EB0",
"~  c #170276",
"^  c #00004E",
"/  c #1E024A",
"(  c #12F72C",
")  c #DE0FD5",
"_  c #BAABCD",
"`  c #12F430",
"'  c #E16469",
"]  c #DE0FD5",
"[  c #170276",
"{  c #00004E",
"}  c #1E024A",
"|  c #12F72C",
" . c black",
".. c #12F58C",
"X. c #12F450",
"o. c #E164E5",
"O. c #FF03C1",
"+. c #170276",
"@. c #00004E",
"#. c #1E024A",
"$. c #12F72C",
"%. c black",
"&. c #12F46C",
"*. c #B56DDE",
"=. c #FF03C1",
"-. c #F95BBD",
";. c black",
":. c black",
">. c #400100",
",. c #12F45C",
"<. c #000006",
"1. c #12F4EC",
"2. c #FB80DB",
"3. c #F88608",
"4. c white",
"5. c #12F4FC",
"6. c #F8858F",
"7. c #400000",
"8. c #E87185",
"9. c #E871A1",
"0. c #F95BBD",
"q. c #12F558",
"w. c black",
"e. c #FDE000",
"r. c #4793A6",
"t. c #000001",
"y. c #12F48C",
"u. c #00C01C",
"i. c #12F550",
"p. c #BB2346",
"a. c #040000",
"s. c #400100",
"d. c #12F4E4",
"f. c black",
"g. c #000052",
"h. c black",
"j. c #FDF000",
"k. c #D2D3A4",
"l. c black",
"z. c #000006",
"x. c #000006",
"c. c #12FAEC",
"v. c #EA13FD",
"b. c #E871C0",
"n. c white",
"m. c #12F54C",
"M. c #E87C8C",
"N. c black",
"B. c #85000F",
"V. c black",
"C. c #010783",
"Z. c black",
"A. c #018730",
"S. c #001000",
"D. c #007F89",
"F. c #000001",
"G. c #007FFF",
"H. c #010000",
"J. c #010000",
"K. c #FEFFFF",
"L. c #000001",
"P. c #139301",
"I. c #060000",
"U. c #12F708",
"Y. c black",
"T. c #400000",
"R. c #400100",
"E. c #12F544",
"W. c #12F6A0",
"Q. c #12F630",
"!. c black",
"~. c #12F584",
"^. c #000052",
"/. c black",
"(. c black",
"). c #D1D3CC",
"_. c #12F610",
"`. c #400100",
"'. c #4A6000",
"]. c #4A6490",
"[. c #000001",
"{. c #F8A34C",
"}. c black",
"|. c #12F758",
" X c black",
".X c #400000",
"XX c #400100",
"oX c #12F594",
"OX c #12F6F0",
"+X c #12F680",
"@X c black",
"#X c #12F5D4",
"$X c #F8CA19",
"%X c #400000",
"&X c #000001",
"*X c #000002",
"=X c #12F660",
"-X c #400100",
";X c #4A6000",
":X c #4A6490",
">X c #000001",
",X c #F8A34C",
"<X c black",
"1X c #4A6000",
"2X c black",
"3X c #400000",
"4X c #400000",
"5X c #400100",
"6X c #12F5E8",
"7X c #12F69C",
"8X c #12F69C",
"9X c #400000",
"0X c #12F628",
"qX c #F8CA19",
"wX c #400000",
"eX c #000001",
"rX c #000002",
"tX c #12F688",
"yX c #400100",
"uX c #400000",
"iX c #12F6AC",
"pX c #F93A45",
"aX c #400000",
"sX c #000001",
"dX c #000002",
"fX c #12F688",
"gX c #12F758",
"hX c #00FF1C",
"jX c black",
"kX c #4A0000",
"lX c #4A6148",
"zX c black",
"xX c black",
"cX c #4A6900",
"vX c #00DC00",
"bX c #4A6490",
"nX c black",
"mX c #12F601",
"MX c black",
"NX c #12F758",
"BX c #12F5EC",
"VX c #12F6F0",
"CX c black",
"ZX c #FB80DB",
"AX c #00DC00",
"SX c white",
"DX c #A0A0A4",
"FX c #808080",
"GX c red",
"HX c green",
"JX c yellow",
"KX c blue",
"LX c magenta",
"PX c cyan",
"IX c white",
"UX c #40CE44",
/* pixels */
"* * * * * * * * * * * * . . . . . * * * * * * * * * ",
"* * * * * * * * * . . . - - - - - . . . . * * * * * ",
"* * * * * * * . . - - - - - - - - - - - - . * * * * ",
"* * * * * * . - - - - - - - - - - - - - - - . . * * ",
"* * * * . . - - - - - - - - - ; ; - - - - - - - . * ",
"* * * * . - - - - - - - - - ; ; ; ; - - - - - - - . ",
"* * * . - - - - - - - - - - ; ;     - - - - - - - . ",
"* * . - - - - - - - - - - - - ;   - - - - - - - - . ",
"* * . - - - - - - - - - - - - - - - - - - - - . . * ",
"* . - - - - - - - - - - - - - - - - - - - . . * * * ",
"* . - - - - - - - - - - - - - - - - - . . * * * * * ",
"* . - - - - - - - - - - - - - - - . . * * * * * * * ",
". - - - - - - - - - - - - - - . . * * * * * * * * * ",
". - - - - - - - - - - - - . . * * * * * * * * * * * ",
". - - - - - - - - - - - . * * * * * * * * * * * * * ",
". - - - - - - - - - - - - . . * * * * * * * * * * * ",
". - - - - - - - - - - - - - - . . * * * * * * * * * ",
"* . - - - - - - - - - - - - - - - . . * * * * * * * ",
"* . - - - - - - - - - - - - - - - - - . . * * * * * ",
"* . - - - - - - - - - - - - - - - - - - - . . * * * ",
"* * . - - - - - - - - - - - - - - - - - - - - . . * ",
"* * . - - - - - - - - - - - - - - - - - - - - - - . ",
"* * * . - - - - - - - - - - - - - - - - - - - - - . ",
"* * * * . - - - - - - - - - - - - - - - - - - - - . ",
"* * * * . . - - - - - - - - - - - - - - - - - . . * ",
"* * * * * * . - - - - - - - - - - - - - - - . * * * ",
"* * * * * * * . . - - - - - - - - - - - . . * * * * ",
"* * * * * * * * * . . . - - - - - . . . * * * * * * ",
"* * * * * * * * * * * * . . . . . * * * * * * * * * "
};
