/* XPM */
static char *dcd1e254dda54eb7f2459a4d6943d4f2PKCw2yxOu2G2kBKD_0[] = {
/* columns rows colors chars-per-pixel */
"29 29 256 2 ",
"   c black",
".  c #800000",
"X  c #008000",
"o  c #808000",
"O  c navy",
"+  c #800080",
"@  c #008080",
"#  c #C0C0C0",
"$  c #C0DCC0",
"%  c #A6CAF0",
"&  c black",
"*  c #404000",
"=  c #840000",
"-  c red",
";  c white",
":  c #040372",
">  c #040372",
",  c #FFFFF9",
"<  c black",
"1  c black",
"2  c black",
"3  c #000380",
"4  c black",
"5  c #170276",
"6  c #040372",
"7  c black",
"8  c #12F350",
"9  c #B69211",
"0  c #1388D8",
"q  c #FFFFF9",
"w  c black",
"e  c #1388D8",
"r  c #B65F28",
"t  c #1388D8",
"y  c #180282",
"u  c #000007",
"i  c #B65D50",
"p  c #12F570",
"a  c black",
"s  c black",
"d  c black",
"f  c black",
"g  c black",
"h  c black",
"j  c black",
"k  c black",
"l  c black",
"z  c black",
"x  c black",
"c  c black",
"v  c black",
"b  c black",
"n  c black",
"m  c black",
"M  c black",
"N  c black",
"B  c black",
"V  c black",
"C  c black",
"Z  c black",
"A  c #00B029",
"S  c #1388D8",
"D  c #00B029",
"F  c #12F2A8",
"G  c #E142F9",
"H  c #5A1308",
"J  c black",
"K  c black",
"L  c #00B029",
"P  c #B65D50",
"I  c #12F40C",
"U  c #E154D2",
"Y  c #040372",
"T  c #00B029",
"R  c black",
"E  c black",
"W  c black",
"Q  c #B660EE",
"!  c #040372",
"~  c #00B029",
"^  c black",
"/  c black",
"(  c #00B029",
")  c #B65D50",
"_  c #12F5F8",
"`  c black",
"'  c black",
"]  c black",
"[  c black",
"{  c black",
"}  c black",
"|  c black",
" . c black",
".. c black",
"X. c black",
"o. c black",
"O. c black",
"+. c black",
"@. c black",
"#. c black",
"$. c black",
"%. c black",
"&. c black",
"*. c black",
"=. c black",
"-. c black",
";. c black",
":. c black",
">. c black",
",. c black",
"<. c black",
"1. c black",
"2. c black",
"3. c black",
"4. c black",
"5. c black",
"6. c black",
"7. c black",
"8. c black",
"9. c black",
"0. c #12F370",
"q. c #E13EB0",
"w. c #040372",
"e. c #000007",
"r. c #180282",
"t. c black",
"y. c #B65D50",
"u. c #BAABCD",
"i. c #12F394",
"p. c #E16469",
"a. c #B65D50",
"s. c #040372",
"d. c #000007",
"f. c #180282",
"g. c black",
"h. c #000007",
"j. c #CE6C8C",
"k. c #12F3B4",
"l. c #E1A6F8",
"z. c #FF03DF",
"x. c #040372",
"c. c #000007",
"v. c #180282",
"b. c black",
"n. c #000001",
"m. c #12F528",
"M. c #42FF7F",
"N. c #FF03DF",
"B. c #12F540",
"V. c #4309FE",
"C. c #430A06",
"Z. c #CE18DC",
"A. c #CE6C8C",
"S. c #CE6C8C",
"D. c black",
"F. c #12F528",
"G. c #4308E1",
"H. c #12F570",
"J. c #42D35C",
"K. c #CE18DC",
"L. c #12F570",
"P. c #CE6C8C",
"I. c #42FEA7",
"U. c #000007",
"Y. c #12F570",
"T. c #CE6C8C",
"R. c black",
"E. c #12F42C",
"W. c #E13EB0",
"Q. c #040372",
"!. c #00B029",
"~. c black",
"^. c #000052",
"/. c black",
"(. c black",
"). c #D12838",
"_. c #E16469",
"`. c #B65D50",
"'. c #040372",
"]. c #00B029",
"[. c black",
"{. c black",
"}. c #00B029",
"|. c #CE6C8C",
" X c #12F470",
".X c #E1A6F8",
"XX c #FF03DF",
"oX c #040372",
"OX c #00B029",
"+X c black",
"@X c black",
"#X c #000001",
"$X c #12F5DC",
"%X c #42FF7F",
"&X c #FF03DF",
"*X c #040372",
"=X c #00B029",
"-X c black",
";X c black",
":X c #12F5DC",
">X c #00B029",
",X c #12F5F8",
"<X c #CE6C8C",
"1X c #42D35C",
"2X c #00B029",
"3X c #12F5F8",
"4X c #CE6C8C",
"5X c #42FEA7",
"6X c #00B029",
"7X c #12F5F8",
"8X c #CE6C8C",
"9X c black",
"0X c black",
"qX c black",
"wX c black",
"eX c black",
"rX c black",
"tX c black",
"yX c black",
"uX c black",
"iX c #000001",
"pX c #000006",
"aX c #CE18DC",
"sX c #000008",
"dX c #5A0600",
"fX c black",
"gX c #170276",
"hX c #01000C",
"jX c #000001",
"kX c #8DB6C0",
"lX c black",
"zX c #12F53C",
"xX c #E169A7",
"cX c #180282",
"vX c #000008",
"bX c #040372",
"nX c black",
"mX c #40EA29",
"MX c #CE0A34",
"NX c #41C7F5",
"BX c #41C7FD",
"VX c #CE18DC",
"CX c #CE0A54",
"ZX c #42FAA7",
"AX c #12F568",
"SX c #42FABE",
"DX c #A0A0A4",
"FX c #808080",
"GX c red",
"HX c green",
"JX c yellow",
"KX c blue",
"LX c magenta",
"PX c cyan",
"IX c white",
"UX c #40CE44",
/* pixels */
"* * * * * * * * * * * * . . . . . * * * * * * * * * * * * ",
"* * * * * * * * . . . . - - - - - . . . * * * * * * * * * ",
"* * * * * * * . - - - - - - - - - - - - . . * * * * * * * ",
"* * * * * . . - - - - - - - - - - - - - - - . * * * * * * ",
"* * * * . - - - - - - - - - - - - - - - - - - . . * * * * ",
"* * * . - - - - - - - - - - - - - - - - - - - - . * * * * ",
"* * * . - - - - - - ; ; - - - - - - - - - - - - - . * * * ",
"* * . - - - - - - ; ; ; ; - - - - - - - - - - - - - . * * ",
"* . - - - - - - -     ; ; - - - - - - - - - - - - - . * * ",
"* . - - - - - - - -   ; - - - - - - - - - - - - - - - . * ",
"* . - - - - - - - - - - - - - - - - - - - - - - - - - . * ",
"* . - - - - - - - - - - - - - - - - - - - - - - - - - . * ",
". - - - - - - - - - - - - - - - - - - - - - - - - - - - . ",
". . . . . . . . - - - - - - - - - - - - - - - - - - - - . ",
"* * * * * * * * . . . . . . . . . - - - - - - - - - - - . ",
". . . . . . . . - - - - - - - - - - - - - - - - - - - - . ",
". - - - - - - - - - - - - - - - - - - - - - - - - - - - . ",
"* . - - - - - - - - - - - - - - - - - - - - - - - - - . * ",
"* . - - - - - - - - - - - - - - - - - - - - - - - - - . * ",
"* . - - - - - - - - - - - - - - - - - - - - - - - - - . * ",
"* . - - - - - - - - - - - - - - - - - - - - - - - - . * * ",
"* * . - - - - - - - - - - - - - - - - - - - - - - - . * * ",
"* * * . - - - - - - - - - - - - - - - - - - - - - . * * * ",
"* * * . - - - - - - - - - - - - - - - - - - - - . * * * * ",
"* * * * . . - - - - - - - - - - - - - - - - - . . * * * * ",
"* * * * * * . - - - - - - - - - - - - - - - . * * * * * * ",
"* * * * * * * . . - - - - - - - - - - - . . * * * * * * * ",
"* * * * * * * * * . . . - - - - - . . . * * * * * * * * * ",
"* * * * * * * * * * * * . . . . . * * * * * * * * * * * * "
};
