/* XPM */
static char *b451438edf674604ea435514fdf34e58mu4ySOdxPWG6WT6V_1[] = {
/* columns rows colors chars-per-pixel */
"29 28 256 2 ",
"   c black",
".  c #800000",
"X  c #008000",
"o  c #808000",
"O  c navy",
"+  c #800080",
"@  c #008080",
"#  c #C0C0C0",
"$  c #C0DCC0",
"%  c #A6CAF0",
"&  c black",
"*  c #404000",
"=  c #840000",
"-  c red",
";  c white",
":  c #040372",
">  c #040372",
",  c #FFFFF9",
"<  c black",
"1  c black",
"2  c black",
"3  c #000380",
"4  c black",
"5  c #170276",
"6  c #040372",
"7  c black",
"8  c #12F350",
"9  c #B69211",
"0  c #1388D8",
"q  c #FFFFF9",
"w  c black",
"e  c #1388D8",
"r  c #B65F28",
"t  c #1388D8",
"y  c #180282",
"u  c #000007",
"i  c #B65D50",
"p  c #12F570",
"a  c black",
"s  c black",
"d  c black",
"f  c black",
"g  c black",
"h  c black",
"j  c black",
"k  c black",
"l  c black",
"z  c black",
"x  c black",
"c  c black",
"v  c black",
"b  c black",
"n  c black",
"m  c black",
"M  c black",
"N  c black",
"B  c black",
"V  c black",
"C  c black",
"Z  c black",
"A  c #00B029",
"S  c #1388D8",
"D  c #00B029",
"F  c #12F2A8",
"G  c #E142F9",
"H  c #5A1308",
"J  c black",
"K  c black",
"L  c #00B029",
"P  c #B65D50",
"I  c #12F40C",
"U  c #E154D2",
"Y  c #040372",
"T  c #00B029",
"R  c black",
"E  c black",
"W  c black",
"Q  c #B660EE",
"!  c #040372",
"~  c #00B029",
"^  c black",
"/  c black",
"(  c #00B029",
")  c #B65D50",
"_  c #12F5F8",
"`  c black",
"'  c black",
"]  c black",
"[  c black",
"{  c black",
"}  c black",
"|  c black",
" . c black",
".. c black",
"X. c black",
"o. c black",
"O. c black",
"+. c black",
"@. c black",
"#. c black",
"$. c black",
"%. c black",
"&. c black",
"*. c black",
"=. c black",
"-. c #F95BBD",
";. c black",
":. c black",
">. c #400100",
",. c #12F314",
"<. c #000006",
"1. c #12F3A4",
"2. c #FB80DB",
"3. c #F88608",
"4. c white",
"5. c #12F3B4",
"6. c #F8858F",
"7. c #400000",
"8. c #E87185",
"9. c #E871A1",
"0. c #F95BBD",
"q. c #12F410",
"w. c black",
"e. c #FDE000",
"r. c #180282",
"t. c black",
"y. c #B65D50",
"u. c #BAABCD",
"i. c #12F394",
"p. c #E16469",
"a. c #040000",
"s. c #400100",
"d. c #000007",
"f. c black",
"g. c #000052",
"h. c black",
"j. c #FDF000",
"k. c #D23F20",
"l. c #E1A6F8",
"z. c #000006",
"x. c #000006",
"c. c #12F9A4",
"v. c #EA13FD",
"b. c #E871C0",
"n. c white",
"m. c #12F404",
"M. c #E87C8C",
"N. c black",
"B. c #85000F",
"V. c black",
"C. c #0106F9",
"Z. c black",
"A. c #018730",
"S. c #001000",
"D. c #007F89",
"F. c #000001",
"G. c #007FFF",
"H. c #010000",
"J. c #010000",
"K. c #FEFFFF",
"L. c #000001",
"P. c #CE6C01",
"I. c #060000",
"U. c #12F5C0",
"Y. c black",
"T. c #400000",
"R. c #400100",
"E. c #12F3FC",
"W. c #12F558",
"Q. c #12F4E8",
"!. c black",
"~. c #12F43C",
"^. c #000052",
"/. c black",
"(. c black",
"). c #D20910",
"_. c #12F4C8",
"`. c #400100",
"'. c #4A6000",
"]. c #4A6490",
"[. c #000001",
"{. c #F8A34C",
"}. c black",
"|. c #12F610",
" X c black",
".X c #400000",
"XX c #400100",
"oX c #12F44C",
"OX c #12F5A8",
"+X c #12F538",
"@X c black",
"#X c #12F48C",
"$X c #F8CA19",
"%X c #400000",
"&X c #000001",
"*X c #000002",
"=X c #12F518",
"-X c #400100",
";X c #4A6000",
":X c #4A6490",
">X c #000001",
",X c #F8A34C",
"<X c black",
"1X c #4A6000",
"2X c black",
"3X c #400000",
"4X c #400000",
"5X c #400100",
"6X c #12F4A0",
"7X c #12F554",
"8X c #12F554",
"9X c #400000",
"0X c #12F4E0",
"qX c #F8CA19",
"wX c #400000",
"eX c #000001",
"rX c #000002",
"tX c #12F540",
"yX c #400100",
"uX c #400000",
"iX c #12F564",
"pX c #F93A45",
"aX c #400000",
"sX c #000001",
"dX c #000002",
"fX c #12F540",
"gX c #12F610",
"hX c #00FF1C",
"jX c black",
"kX c #4A0000",
"lX c #4A6148",
"zX c black",
"xX c black",
"cX c #4A6900",
"vX c #00DC00",
"bX c #4A6490",
"nX c black",
"mX c #12F501",
"MX c black",
"NX c #12F610",
"BX c #12F4A4",
"VX c #12F5A8",
"CX c black",
"ZX c #FB80DB",
"AX c #00DC00",
"SX c white",
"DX c #A0A0A4",
"FX c #808080",
"GX c red",
"HX c green",
"JX c yellow",
"KX c blue",
"LX c magenta",
"PX c cyan",
"IX c white",
"UX c #40CE44",
/* pixels */
"* * * * * * * * * * * * . . . . . * * * * * * * * * * * * ",
"* * * * * * * * * . . . - - - - - . . . * * * * * * * * * ",
"* * * * * * * . . - - - - - - - - - - - . . * * * * * * * ",
"* * * * * * . - - - - - - - - - - - - - - - . * * * * * * ",
"* * * * . . - - - - - - - - - - - - - - - - - . . * * * * ",
"* * * * . - - - - - - - - - - - - - - - - - - - . * * * * ",
"* * * . - - - - - - - - - - - - - - - - - - - - - . * * * ",
"* * . - - - - - - - - - - - - - - - - - - - - - - - . * * ",
"* * . - - - - - - - - - - - - - - - - - - - - - - - . * * ",
"* . - - - - - - - - - - - - - - - - - - - - - - - - - . * ",
"* . - - - - - - - - - - - - - - - - - - - - - - - - - . * ",
"* . - - - - - - - - - - - - - - - - - - - - - - - - - . * ",
". - - - - - - - - - - - - - . - - - - - - - - - - - - - . ",
". - - - - - - - - - - - - - . - - - - - - - - - - - - - . ",
". - - - - - - - - - - - - . * . - - - - - - - - - - - - . ",
". - - - - - - - - - - - - . * . - - - - - ; ; - - - - - . ",
". - - - - - - - - - - - - . * . - - - - ; ; ; ; - - - - . ",
"* . - - - - - - - - - - - . * . - - - -     ; ; - - - . * ",
"* . - - - - - - - - - - . * * * . - - - -   ; - - - - . * ",
"* . - - - - - - - - - - . * * * . - - - - - - - - - - . * ",
"* * . - - - - - - - - - . * * * . - - - - - - - - - - . * ",
"* * . - - - - - - - - - . * * * . - - - - - - - - - . * * ",
"* * * . - - - - - - - . * * * * * . - - - - - - - . * * * ",
"* * * * . - - - - - - . * * * * * . - - - - - - - . * * * ",
"* * * * . - - - - - - . * * * * * . - - - - - - . * * * * ",
"* * * * * . . - - - - . * * * * * . - - - - . . * * * * * ",
"* * * * * * * . - - . * * * * * * * . - - . * * * * * * * ",
"* * * * * * * * . . . * * * * * * * . . . * * * * * * * * "
};
